<svg xmlns="http://www.w3.org/2000/svg" width="108" height="108"><rect x="0" y="0" width="100%" height="100%" fill="rgb(73, 121, 136)" /><rect x="0.0" y="0.0" width="18.0" height="18.0" fill="#ddd" style="opacity:0.044000000000000004;" /><rect x="18.0" y="0.0" width="18.0" height="18.0" fill="#ddd" style="opacity:0.068;" /><rect x="36.0" y="0.0" width="18.0" height="18.0" fill="#222" style="opacity:0.152;" /><rect x="54.0" y="0.0" width="18.0" height="18.0" fill="#222" style="opacity:0.10400000000000002;" /><rect x="72.0" y="0.0" width="18.0" height="18.0" fill="#222" style="opacity:0.10400000000000002;" /><rect x="90.0" y="0.0" width="18.0" height="18.0" fill="#ddd" style="opacity:0.09200000000000001;" /><rect x="0.0" y="18.0" width="18.0" height="18.0" fill="#ddd" style="opacity:0.14;" /><rect x="18.0" y="18.0" width="18.0" height="18.0" fill="#ddd" style="opacity:0.02;" /><rect x="36.0" y="18.0" width="18.0" height="18.0" fill="#222" style="opacity:0.10400000000000002;" /><rect x="54.0" y="18.0" width="18.0" height="18.0" fill="#ddd" style="opacity:0.068;" /><rect x="72.0" y="18.0" width="18.0" height="18.0" fill="#222" style="opacity:0.17600000000000002;" /><rect x="90.0" y="18.0" width="18.0" height="18.0" fill="#ddd" style="opacity:0.068;" /><rect x="0.0" y="36.0" width="18.0" height="18.0" fill="#ddd" style="opacity:0.068;" /><rect x="18.0" y="36.0" width="18.0" height="18.0" fill="#ddd" style="opacity:0.02;" /><rect x="36.0" y="36.0" width="18.0" height="18.0" fill="#ddd" style="opacity:0.14;" /><rect x="54.0" y="36.0" width="18.0" height="18.0" fill="#ddd" style="opacity:0.09200000000000001;" /><rect x="72.0" y="36.0" width="18.0" height="18.0" fill="#222" style="opacity:0.10400000000000002;" /><rect x="90.0" y="36.0" width="18.0" height="18.0" fill="#ddd" style="opacity:0.164;" /><rect x="0.0" y="54.0" width="18.0" height="18.0" fill="#ddd" style="opacity:0.164;" /><rect x="18.0" y="54.0" width="18.0" height="18.0" fill="#222" style="opacity:0.2;" /><rect x="36.0" y="54.0" width="18.0" height="18.0" fill="#ddd" style="opacity:0.18800000000000003;" /><rect x="54.0" y="54.0" width="18.0" height="18.0" fill="#ddd" style="opacity:0.044000000000000004;" /><rect x="72.0" y="54.0" width="18.0" height="18.0" fill="#222" style="opacity:0.152;" /><rect x="90.0" y="54.0" width="18.0" height="18.0" fill="#ddd" style="opacity:0.164;" /><rect x="0.0" y="72.0" width="18.0" height="18.0" fill="#222" style="opacity:0.05600000000000001;" /><rect x="18.0" y="72.0" width="18.0" height="18.0" fill="#222" style="opacity:0.05600000000000001;" /><rect x="36.0" y="72.0" width="18.0" height="18.0" fill="#222" style="opacity:0.032;" /><rect x="54.0" y="72.0" width="18.0" height="18.0" fill="#ddd" style="opacity:0.18800000000000003;" /><rect x="72.0" y="72.0" width="18.0" height="18.0" fill="#222" style="opacity:0.152;" /><rect x="90.0" y="72.0" width="18.0" height="18.0" fill="#222" style="opacity:0.152;" /><rect x="0.0" y="90.0" width="18.0" height="18.0" fill="#222" style="opacity:0.08000000000000002;" /><rect x="18.0" y="90.0" width="18.0" height="18.0" fill="#ddd" style="opacity:0.09200000000000001;" /><rect x="36.0" y="90.0" width="18.0" height="18.0" fill="#ddd" style="opacity:0.18800000000000003;" /><rect x="54.0" y="90.0" width="18.0" height="18.0" fill="#222" style="opacity:0.08000000000000002;" /><rect x="72.0" y="90.0" width="18.0" height="18.0" fill="#222" style="opacity:0.152;" /><rect x="90.0" y="90.0" width="18.0" height="18.0" fill="#ddd" style="opacity:0.068;" /></svg>